<?xml version="1.0" encoding="UTF-8" standalone="no"?>
<!-- Created with Inkscape (http://www.inkscape.org/) -->

<svg
   width="155"
   height="166"
   viewBox="0 0 41.010416 43.920835"
   version="1.1"
   id="svg11027"
   xmlns="http://www.w3.org/2000/svg"
   xmlns:svg="http://www.w3.org/2000/svg">
  <defs
     id="defs11024">
    <marker
       style="overflow:visible"
       id="Arrow1Lend"
       refX="0"
       refY="0"
       orient="auto">
      <path
         transform="matrix(-0.8,0,0,-0.8,-10,0)"
         style="fill:context-stroke;fill-rule:evenodd;stroke:context-stroke;stroke-width:1pt"
         d="M 0,0 5,-5 -12.5,0 5,5 Z"
         id="path21172" />
    </marker>
    <marker
       style="overflow:visible"
       id="marker21447"
       refX="0"
       refY="0"
       orient="auto">
      <path
         transform="matrix(0.8,0,0,0.8,10,0)"
         style="fill:context-stroke;fill-rule:evenodd;stroke:context-stroke;stroke-width:1pt"
         d="M 0,0 5,-5 -12.5,0 5,5 Z"
         id="path21445" />
    </marker>
    <marker
       style="overflow:visible"
       id="Arrow1Lstart"
       refX="0"
       refY="0"
       orient="auto">
      <path
         transform="matrix(0.8,0,0,0.8,10,0)"
         style="fill:context-stroke;fill-rule:evenodd;stroke:context-stroke;stroke-width:1pt"
         d="M 0,0 5,-5 -12.5,0 5,5 Z"
         id="path21169" />
    </marker>
    <marker
       style="overflow:visible"
       id="Arrow1Mstart"
       refX="0"
       refY="0"
       orient="auto">
      <path
         transform="matrix(0.4,0,0,0.4,4,0)"
         style="fill:context-stroke;fill-rule:evenodd;stroke:context-stroke;stroke-width:1pt"
         d="M 0,0 5,-5 -12.5,0 5,5 Z"
         id="path21175" />
    </marker>
    <marker
       style="overflow:visible"
       id="Arrow1Lend-8"
       refX="0"
       refY="0"
       orient="auto">
      <path
         transform="matrix(-0.8,0,0,-0.8,-10,0)"
         style="fill:context-stroke;fill-rule:evenodd;stroke:context-stroke;stroke-width:1pt"
         d="M 0,0 5,-5 -12.5,0 5,5 Z"
         id="path21172-3" />
    </marker>
    <marker
       style="overflow:visible"
       id="Arrow1Lend-2"
       refX="0"
       refY="0"
       orient="auto">
      <path
         transform="matrix(-0.8,0,0,-0.8,-10,0)"
         style="fill:context-stroke;fill-rule:evenodd;stroke:context-stroke;stroke-width:1pt"
         d="M 0,0 5,-5 -12.5,0 5,5 Z"
         id="path21172-1" />
    </marker>
    <marker
       style="overflow:visible"
       id="Arrow1Lend-2-8"
       refX="0"
       refY="0"
       orient="auto">
      <path
         transform="matrix(-0.8,0,0,-0.8,-10,0)"
         style="fill:context-stroke;fill-rule:evenodd;stroke:context-stroke;stroke-width:1pt"
         d="M 0,0 5,-5 -12.5,0 5,5 Z"
         id="path21172-1-3" />
    </marker>
    <marker
       style="overflow:visible"
       id="Arrow1Lend-9"
       refX="0"
       refY="0"
       orient="auto">
      <path
         transform="matrix(-0.8,0,0,-0.8,-10,0)"
         style="fill:context-stroke;fill-rule:evenodd;stroke:context-stroke;stroke-width:1pt"
         d="M 0,0 5,-5 -12.5,0 5,5 Z"
         id="path21172-4" />
    </marker>
    <marker
       style="overflow:visible"
       id="Arrow1Lend-7"
       refX="0"
       refY="0"
       orient="auto">
      <path
         transform="matrix(-0.8,0,0,-0.8,-10,0)"
         style="fill:context-stroke;fill-rule:evenodd;stroke:context-stroke;stroke-width:1pt"
         d="M 0,0 5,-5 -12.5,0 5,5 Z"
         id="path21172-48" />
    </marker>
  </defs>
  <g
     id="layer1">
    <g
       id="g2861"
       transform="translate(-0.11832121,-0.54089696)" />
    <g
       id="g12833"
       transform="matrix(0,-0.98429375,-0.96340171,0,42.286521,36.078683)">
      <ellipse
         style="fill:#5498ac;fill-opacity:1;stroke:#000000;stroke-width:0.26458298;stroke-linecap:round;stroke-miterlimit:4;stroke-dasharray:none;stroke-dashoffset:0"
         id="path13567"
         cx="-35.873497"
         cy="-29.582321"
         transform="matrix(0,-1,-1,0,0,0)"
         rx="2.6202097"
         ry="2.5645947" />
      <ellipse
         style="fill:#5498ac;fill-opacity:1;stroke:#000000;stroke-width:0.264583;stroke-linecap:round;stroke-miterlimit:4;stroke-dasharray:none;stroke-dashoffset:0"
         id="path13567-6"
         cx="-19.120031"
         cy="-26.318293"
         transform="matrix(0,-1,-1,0,0,0)"
         rx="2.6202097"
         ry="2.5645947" />
      <ellipse
         style="fill:#5498ac;fill-opacity:1;stroke:#000000;stroke-width:0.264583;stroke-linecap:round;stroke-miterlimit:4;stroke-dasharray:none;stroke-dashoffset:0"
         id="path13567-7"
         cx="-36.349899"
         cy="-14.427897"
         transform="matrix(0,-1,-1,0,0,0)"
         rx="2.6202097"
         ry="2.5645947" />
      <ellipse
         style="fill:#5498ac;fill-opacity:1;stroke:#000000;stroke-width:0.264583;stroke-linecap:round;stroke-miterlimit:4;stroke-dasharray:none;stroke-dashoffset:0"
         id="path13567-5"
         cx="-20.628639"
         cy="-12.407309"
         transform="matrix(0,-1,-1,0,0,0)"
         rx="2.6202097"
         ry="2.5645947" />
      <ellipse
         style="fill:#5498ac;fill-opacity:1;stroke:#000000;stroke-width:0.264583;stroke-linecap:round;stroke-miterlimit:4;stroke-dasharray:none;stroke-dashoffset:0"
         id="path13567-0"
         cx="-5.0661807"
         cy="-14.738758"
         transform="matrix(0,-1,-1,0,0,0)"
         rx="2.6202097"
         ry="2.5645947" />
      <ellipse
         style="fill:#5498ac;fill-opacity:1;stroke:#000000;stroke-width:0.264583;stroke-linecap:round;stroke-miterlimit:4;stroke-dasharray:none;stroke-dashoffset:0"
         id="path13567-70"
         cx="-12.529809"
         cy="0.18252128"
         transform="matrix(0,-1,-1,0,0,0)"
         rx="2.6202097"
         ry="2.5645947" />
      <ellipse
         style="fill:#5498ac;fill-opacity:1;stroke:#000000;stroke-width:0.264583;stroke-linecap:round;stroke-miterlimit:4;stroke-dasharray:none;stroke-dashoffset:0"
         id="path13567-8"
         cx="-31.744682"
         cy="1.5813909"
         transform="matrix(0,-1,-1,0,0,0)"
         rx="2.6202097"
         ry="2.5645947" />
      <path
         style="fill:none;stroke:#000000;stroke-width:0.271704px;stroke-linecap:butt;stroke-linejoin:miter;stroke-opacity:1"
         d="M 28.960602,33.412088 27.173157,21.700544"
         id="path13879" />
      <path
         style="fill:none;stroke:#000000;stroke-width:0.271704px;stroke-linecap:butt;stroke-linejoin:miter;stroke-opacity:1"
         d="M 27.056584,35.952897 14.427898,22.454846"
         id="path13881" />
      <path
         style="fill:none;stroke:#000000;stroke-width:0.271704px;stroke-linecap:butt;stroke-linejoin:miter;stroke-opacity:1"
         d="m 12.543309,23.2687 1.340584,10.480839"
         id="path13883" />
      <path
         style="fill:none;stroke:#000000;stroke-width:0.271704px;stroke-linecap:butt;stroke-linejoin:miter;stroke-opacity:1"
         d="M 10.386718,19.040634 2.012928,13.820063"
         id="path13885" />
      <path
         style="fill:none;stroke:#000000;stroke-width:0.271704px;stroke-linecap:butt;stroke-linejoin:miter;stroke-opacity:1"
         d="M -1.2122459,29.144322 -0.47395346,15.16987"
         id="path13887" />
      <path
         style="fill:none;stroke:#000000;stroke-width:0.271704px;stroke-linecap:butt;stroke-linejoin:miter;stroke-opacity:1"
         d="M 16.390201,7.0114896 24.550276,17.194577"
         id="path13889" />
    </g>
  </g>
</svg>
